<mxfile host="app.diagrams.net" agent="Mozilla/5.0 (X11; Linux x86_64) AppleWebKit/537.36 (KHTML, like Gecko) Chrome/137.0.0.0 Safari/537.36" version="28.0.7">
  <diagram name="Trang-1" id="fr_PmrZZSTmMdZaG0rQB">
    <mxGraphModel dx="2187" dy="913" grid="1" gridSize="10" guides="1" tooltips="1" connect="1" arrows="1" fold="1" page="1" pageScale="1" pageWidth="827" pageHeight="1169" math="0" shadow="0">
      <root>
        <mxCell id="0" />
        <mxCell id="1" parent="0" />
        <mxCell id="rL9s7sFafFEkiuLh7Dbq-3" style="edgeStyle=orthogonalEdgeStyle;rounded=0;orthogonalLoop=1;jettySize=auto;html=1;" edge="1" parent="1" source="rL9s7sFafFEkiuLh7Dbq-1" target="rL9s7sFafFEkiuLh7Dbq-2">
          <mxGeometry relative="1" as="geometry" />
        </mxCell>
        <mxCell id="rL9s7sFafFEkiuLh7Dbq-1" value="DOM" style="whiteSpace=wrap;html=1;aspect=fixed;" vertex="1" parent="1">
          <mxGeometry x="90" y="250" width="80" height="80" as="geometry" />
        </mxCell>
        <mxCell id="rL9s7sFafFEkiuLh7Dbq-6" style="edgeStyle=orthogonalEdgeStyle;rounded=0;orthogonalLoop=1;jettySize=auto;html=1;" edge="1" parent="1" source="rL9s7sFafFEkiuLh7Dbq-2" target="rL9s7sFafFEkiuLh7Dbq-5">
          <mxGeometry relative="1" as="geometry" />
        </mxCell>
        <mxCell id="rL9s7sFafFEkiuLh7Dbq-2" value="CSSDOM" style="whiteSpace=wrap;html=1;aspect=fixed;" vertex="1" parent="1">
          <mxGeometry x="250" y="250" width="80" height="80" as="geometry" />
        </mxCell>
        <mxCell id="rL9s7sFafFEkiuLh7Dbq-9" style="edgeStyle=orthogonalEdgeStyle;rounded=0;orthogonalLoop=1;jettySize=auto;html=1;" edge="1" parent="1" source="rL9s7sFafFEkiuLh7Dbq-5" target="rL9s7sFafFEkiuLh7Dbq-8">
          <mxGeometry relative="1" as="geometry" />
        </mxCell>
        <mxCell id="rL9s7sFafFEkiuLh7Dbq-5" value="Layout&lt;div&gt;Tree&lt;/div&gt;" style="whiteSpace=wrap;html=1;aspect=fixed;" vertex="1" parent="1">
          <mxGeometry x="374" y="250" width="80" height="80" as="geometry" />
        </mxCell>
        <mxCell id="rL9s7sFafFEkiuLh7Dbq-12" style="edgeStyle=orthogonalEdgeStyle;rounded=0;orthogonalLoop=1;jettySize=auto;html=1;" edge="1" parent="1" source="rL9s7sFafFEkiuLh7Dbq-8" target="rL9s7sFafFEkiuLh7Dbq-11">
          <mxGeometry relative="1" as="geometry" />
        </mxCell>
        <mxCell id="rL9s7sFafFEkiuLh7Dbq-8" value="Paint" style="whiteSpace=wrap;html=1;aspect=fixed;" vertex="1" parent="1">
          <mxGeometry x="510" y="250" width="80" height="80" as="geometry" />
        </mxCell>
        <mxCell id="rL9s7sFafFEkiuLh7Dbq-11" value="Layerize tree" style="whiteSpace=wrap;html=1;aspect=fixed;" vertex="1" parent="1">
          <mxGeometry x="630" y="250" width="80" height="80" as="geometry" />
        </mxCell>
        <mxCell id="rL9s7sFafFEkiuLh7Dbq-14" value="" style="shape=flexArrow;endArrow=classic;startArrow=classic;html=1;rounded=0;" edge="1" parent="1">
          <mxGeometry width="100" height="100" relative="1" as="geometry">
            <mxPoint x="90" y="370" as="sourcePoint" />
            <mxPoint x="710" y="370" as="targetPoint" />
          </mxGeometry>
        </mxCell>
        <mxCell id="rL9s7sFafFEkiuLh7Dbq-15" value="CPU&amp;nbsp; - Main thread" style="text;html=1;align=center;verticalAlign=middle;whiteSpace=wrap;rounded=0;" vertex="1" parent="1">
          <mxGeometry x="309" y="400" width="210" height="30" as="geometry" />
        </mxCell>
        <mxCell id="rL9s7sFafFEkiuLh7Dbq-16" value="Step 1" style="rounded=0;whiteSpace=wrap;html=1;" vertex="1" parent="1">
          <mxGeometry x="-20" y="160" width="120" height="60" as="geometry" />
        </mxCell>
        <mxCell id="rL9s7sFafFEkiuLh7Dbq-17" value="" style="endArrow=classic;startArrow=classic;html=1;rounded=0;" edge="1" parent="1">
          <mxGeometry width="50" height="50" relative="1" as="geometry">
            <mxPoint x="40" y="430" as="sourcePoint" />
            <mxPoint x="39.5" y="230" as="targetPoint" />
          </mxGeometry>
        </mxCell>
        <mxCell id="rL9s7sFafFEkiuLh7Dbq-18" value="Step 2" style="rounded=0;whiteSpace=wrap;html=1;" vertex="1" parent="1">
          <mxGeometry x="-20" y="450" width="120" height="60" as="geometry" />
        </mxCell>
        <mxCell id="rL9s7sFafFEkiuLh7Dbq-26" style="edgeStyle=orthogonalEdgeStyle;rounded=0;orthogonalLoop=1;jettySize=auto;html=1;entryX=0;entryY=0.5;entryDx=0;entryDy=0;" edge="1" parent="1" source="rL9s7sFafFEkiuLh7Dbq-19" target="rL9s7sFafFEkiuLh7Dbq-21">
          <mxGeometry relative="1" as="geometry" />
        </mxCell>
        <mxCell id="rL9s7sFafFEkiuLh7Dbq-27" style="edgeStyle=orthogonalEdgeStyle;rounded=0;orthogonalLoop=1;jettySize=auto;html=1;entryX=0;entryY=0.25;entryDx=0;entryDy=0;" edge="1" parent="1" source="rL9s7sFafFEkiuLh7Dbq-19" target="rL9s7sFafFEkiuLh7Dbq-22">
          <mxGeometry relative="1" as="geometry" />
        </mxCell>
        <mxCell id="rL9s7sFafFEkiuLh7Dbq-28" style="edgeStyle=orthogonalEdgeStyle;rounded=0;orthogonalLoop=1;jettySize=auto;html=1;entryX=0;entryY=0.5;entryDx=0;entryDy=0;" edge="1" parent="1" source="rL9s7sFafFEkiuLh7Dbq-19" target="rL9s7sFafFEkiuLh7Dbq-25">
          <mxGeometry relative="1" as="geometry" />
        </mxCell>
        <mxCell id="rL9s7sFafFEkiuLh7Dbq-30" style="edgeStyle=orthogonalEdgeStyle;rounded=0;orthogonalLoop=1;jettySize=auto;html=1;entryX=0;entryY=0.5;entryDx=0;entryDy=0;" edge="1" parent="1" source="rL9s7sFafFEkiuLh7Dbq-19" target="rL9s7sFafFEkiuLh7Dbq-29">
          <mxGeometry relative="1" as="geometry" />
        </mxCell>
        <mxCell id="rL9s7sFafFEkiuLh7Dbq-19" value="Rasterize" style="whiteSpace=wrap;html=1;aspect=fixed;" vertex="1" parent="1">
          <mxGeometry x="170" y="570" width="80" height="80" as="geometry" />
        </mxCell>
        <mxCell id="rL9s7sFafFEkiuLh7Dbq-21" value="rasterize task 1" style="rounded=0;whiteSpace=wrap;html=1;" vertex="1" parent="1">
          <mxGeometry x="299" y="630" width="120" height="60" as="geometry" />
        </mxCell>
        <mxCell id="rL9s7sFafFEkiuLh7Dbq-22" value="rasterize task 2" style="rounded=0;whiteSpace=wrap;html=1;" vertex="1" parent="1">
          <mxGeometry x="299" y="720" width="120" height="60" as="geometry" />
        </mxCell>
        <mxCell id="rL9s7sFafFEkiuLh7Dbq-25" value="rastereize task 3" style="rounded=0;whiteSpace=wrap;html=1;" vertex="1" parent="1">
          <mxGeometry x="299" y="800" width="120" height="60" as="geometry" />
        </mxCell>
        <mxCell id="rL9s7sFafFEkiuLh7Dbq-29" value="Compositer frame" style="whiteSpace=wrap;html=1;aspect=fixed;" vertex="1" parent="1">
          <mxGeometry x="430" y="460" width="80" height="80" as="geometry" />
        </mxCell>
        <mxCell id="rL9s7sFafFEkiuLh7Dbq-31" value="" style="shape=flexArrow;endArrow=classic;startArrow=classic;html=1;rounded=0;" edge="1" parent="1">
          <mxGeometry width="100" height="100" relative="1" as="geometry">
            <mxPoint x="80" y="900" as="sourcePoint" />
            <mxPoint x="720" y="900" as="targetPoint" />
          </mxGeometry>
        </mxCell>
        <mxCell id="rL9s7sFafFEkiuLh7Dbq-33" value="GPU - Raster thread" style="text;html=1;align=center;verticalAlign=middle;whiteSpace=wrap;rounded=0;" vertex="1" parent="1">
          <mxGeometry x="339" y="920" width="150" height="30" as="geometry" />
        </mxCell>
        <mxCell id="rL9s7sFafFEkiuLh7Dbq-34" value="" style="endArrow=classic;startArrow=classic;html=1;rounded=0;" edge="1" parent="1">
          <mxGeometry width="50" height="50" relative="1" as="geometry">
            <mxPoint x="40" y="900" as="sourcePoint" />
            <mxPoint x="40" y="540" as="targetPoint" />
          </mxGeometry>
        </mxCell>
      </root>
    </mxGraphModel>
  </diagram>
</mxfile>
